<?xml version="1.0" encoding="UTF-8"?>
<svg version="1.1" xmlns="http://www.w3.org/2000/svg" width="500" height="500">
<path d="M0 0 C4.11737677 0.52058787 5.99002414 2.65112727 8.8125 5.5625 C10.02873047 6.80193359 10.02873047 6.80193359 11.26953125 8.06640625 C13.25885051 10.16477052 15.14627908 12.33177793 17.02430725 14.52990723 C21.56887718 19.73113588 26.45033605 24.58288963 31.34155273 29.45507812 C32.36741784 30.48066056 33.39306161 31.50646442 34.41850281 32.5324707 C37.18022937 35.29448212 39.94501038 38.05341702 42.71038318 40.81177711 C45.60829242 43.70340072 48.50333705 46.59788955 51.3986969 49.49206543 C56.87176551 54.96203601 62.34737638 60.42945423 67.82392317 65.89594221 C74.06295585 72.12376611 80.29912178 78.35445726 86.5350579 84.58538151 C99.35353573 97.39342958 112.17557882 110.19790302 125 123 C123.4412768 126.27907168 121.77923626 128.46450075 119.19287109 131.03417969 C118.41221283 131.81468689 117.63155457 132.59519409 116.82723999 133.39935303 C115.98448517 134.23178528 115.14173035 135.06421753 114.2734375 135.921875 C113.41062164 136.78186096 112.54780579 137.64184692 111.65884399 138.52789307 C108.90221971 141.2733231 106.13872201 144.0117169 103.375 146.75 C101.50475143 148.61021783 99.63495411 150.47088946 97.765625 152.33203125 C93.1823064 156.89329945 88.59332522 161.44881011 84 166 C80.39240899 164.64128737 78.37497679 163.68407337 76 160.625 C72.97119554 156.95088777 69.63743259 153.7452677 66.10864258 150.56347656 C58.95269044 144.03082895 52.09664253 137.22482719 45.26171875 130.359375 C44.00256616 129.09835068 42.74318767 127.83755187 41.4835968 126.57696533 C38.21493348 123.30453616 34.94928756 120.02911283 31.68432617 116.75299072 C28.33373594 113.39205664 24.98021045 110.03405396 21.62695312 106.67578125 C15.08180851 100.12000436 8.53985744 93.56105095 2 87 C0.87741632 87.9555724 -0.24422945 88.91224671 -1.36547852 89.86938477 C-2.30255394 90.66832909 -2.30255394 90.66832909 -3.25856018 91.4834137 C-5.891707 93.77657041 -8.2908732 96.26813467 -10.71484375 98.77734375 C-12.53357344 100.54633041 -14.3680764 102.1668431 -16.30102539 103.80322266 C-22.65372036 109.34912818 -28.52177582 115.39860081 -34.46875 121.37109375 C-35.75747072 122.66168285 -37.04641485 123.9520489 -38.33557129 125.24220276 C-41.70457828 128.61500184 -45.07056955 131.99079462 -48.43591309 135.36724854 C-51.87991623 138.82153745 -55.32680249 142.27294685 -58.7734375 145.72460938 C-65.51842839 152.48027913 -72.26023258 159.23911934 -79 166 C-82.2948617 164.55785801 -84.48934769 162.76816735 -87.03417969 160.24047852 C-87.81468689 159.46950333 -88.59519409 158.69852814 -89.39935303 157.90419006 C-90.23178528 157.07084641 -91.06421753 156.23750275 -91.921875 155.37890625 C-92.78186096 154.52320541 -93.64184692 153.66750458 -94.52789307 152.78587341 C-96.34259713 150.97690948 -98.15468978 149.16532262 -99.96435547 147.35131836 C-102.74448677 144.56801951 -105.53768757 141.79831789 -108.33203125 139.02929688 C-110.09195604 137.27164421 -111.85109787 135.51320715 -113.609375 133.75390625 C-114.87016876 132.50692711 -114.87016876 132.50692711 -116.15643311 131.23475647 C-116.92433167 130.46062912 -117.69223022 129.68650177 -118.48339844 128.88891602 C-119.16416443 128.20877945 -119.84493042 127.52864288 -120.54632568 126.82789612 C-122 125 -122 125 -122 122 C-120.63847828 120.5597105 -120.63847828 120.5597105 -118.69062805 118.99504089 C-113.13456324 114.33317216 -108.06802082 109.20822336 -102.94995117 104.0793457 C-101.86026259 102.99101478 -100.77036197 101.90289613 -99.68026733 100.81497192 C-96.74235237 97.88158578 -93.80757299 94.94508178 -90.87351394 92.00783944 C-87.79480868 88.92658953 -84.71364972 85.84779477 -81.63288879 82.76860046 C-76.46578145 77.60330759 -71.30077556 72.43592044 -66.13696289 67.26733398 C-60.16981222 61.29473055 -54.19905216 55.32575355 -48.22642726 49.35862476 C-43.08896227 44.22569775 -37.9534485 39.09082466 -32.81956083 33.95431966 C-29.75721247 30.89041379 -26.69419595 27.8271841 -23.62941551 24.76571083 C-20.75185812 21.89104248 -17.87675879 19.01393809 -15.00353622 16.13493729 C-13.94943593 15.07951545 -12.89448504 14.02494236 -11.83862114 12.97128487 C-10.39707355 11.53247221 -8.95891071 10.09027075 -7.5209198 8.64790344 C-6.31282544 7.43924354 -6.31282544 7.43924354 -5.08032513 6.20616627 C-3.21184542 4.22466018 -1.57814446 2.21599579 0 0 Z " fill="#9167EA" transform="translate(186,188)"/>
<path d="M0 0 C6.57425077 5.40821998 12.53244241 11.39822295 18.53491211 17.42138672 C19.68842433 18.57518141 20.84215758 19.72875517 21.99609375 20.88212585 C25.11145877 23.99720522 28.22374164 27.11534729 31.33546138 30.23406744 C34.59412073 33.49899898 37.85563233 36.76107878 41.11683655 40.02346802 C47.28453275 46.19426616 53.44967645 52.36760789 59.61389691 58.54187787 C66.63491729 65.57409475 73.65879415 72.6034556 80.68290699 79.63258338 C95.12510842 94.08522346 109.56373649 108.54142889 124 123 C122.45069162 126.25240471 120.7937901 128.47268787 118.25634766 131.05004883 C117.48860016 131.83378372 116.72085266 132.61751862 115.92984009 133.42500305 C115.09963348 134.26057236 114.26942688 135.09614166 113.4140625 135.95703125 C112.56073334 136.81938889 111.70740417 137.68174652 110.82821655 138.57023621 C109.02363904 140.38931341 107.21624301 142.20559827 105.40625 144.01928711 C102.63038271 146.80709414 99.87370828 149.61300092 97.1171875 152.41992188 C95.36313056 154.18343764 93.60795961 155.9458462 91.8515625 157.70703125 C91.02540436 158.55272171 90.19924622 159.39841217 89.34805298 160.26972961 C88.57400116 161.0377037 87.79994934 161.8056778 87.00244141 162.59692383 C86.32452545 163.27991043 85.6466095 163.96289703 84.94815063 164.6665802 C83 166 83 166 81.06490517 165.74661446 C77.48963047 164.45389079 75.11053393 161.51611374 72.48730469 158.85961914 C71.84298492 158.21895004 71.19866516 157.57828094 70.53482056 156.91819763 C68.40636801 154.7978536 66.28896724 152.66683872 64.171875 150.53515625 C62.69836664 149.06112942 61.22434027 147.58762024 59.74981689 146.11460876 C56.66179483 143.02649697 53.57900984 139.9332786 50.5 136.83618164 C46.54483209 132.85829693 42.57865547 128.89161119 38.60874557 124.92844486 C35.56471929 121.88775259 32.52568834 118.84210872 29.48825836 115.79482841 C28.02709092 114.32980113 26.5645597 112.86613277 25.10066986 111.40382576 C23.06050393 109.36402887 21.02693292 107.31788534 18.99511719 105.26977539 C18.38425262 104.66138824 17.77338806 104.0530011 17.14401245 103.42617798 C13 99.22874119 13 99.22874119 13 97 C12.4225 96.773125 11.845 96.54625 11.25 96.3125 C8.42591529 94.66511725 7.0023037 92.56545162 5 90 C2.87396815 88.23676495 2.87396815 88.23676495 1 87 C-3.10108886 88.62156024 -5.83148167 91.5767703 -8.859375 94.6640625 C-9.683237 95.49216934 -9.683237 95.49216934 -10.52374268 96.33700562 C-12.27059293 98.09501815 -14.01034601 99.8598689 -15.75 101.625 C-16.93573591 102.8207708 -18.1219288 104.01608865 -19.30859375 105.2109375 C-22.21105085 108.13540253 -25.1071641 111.06601874 -28 114 C-33.10640238 109.73005144 -37.8677276 105.25434204 -42.54296875 100.51953125 C-43.23385086 99.82486252 -43.92473297 99.13019379 -44.6365509 98.41447449 C-46.82266311 96.21624563 -49.00548135 94.0147918 -51.1875 91.8125 C-54.07392696 88.89944958 -56.96366881 85.98974683 -59.85546875 83.08203125 C-60.51282516 82.4163765 -61.17018158 81.75072174 -61.84745789 81.06489563 C-62.46522598 80.44382431 -63.08299408 79.82275299 -63.71948242 79.18286133 C-64.2579631 78.63914383 -64.79644379 78.09542633 -65.35124207 77.53523254 C-67.13857309 75.87096837 -69.02383605 74.43241018 -71 73 C-70.46905193 69.04698559 -68.76512432 67.59493746 -65.77124023 65.07763672 C-61.59405459 61.44457308 -57.59427224 57.70809116 -53.67993164 53.79345703 C-52.84286257 52.95719945 -52.84286257 52.95719945 -51.98888302 52.10404778 C-50.21067178 50.32392226 -48.43537854 48.54091831 -46.66015625 46.7578125 C-45.40390218 45.499688 -44.14742317 44.24178805 -42.89073181 42.98410034 C-39.61331824 39.7029045 -36.33891925 36.4187169 -33.06518555 33.1338501 C-29.72433079 29.78271172 -26.38059791 26.43444776 -23.03710938 23.0859375 C-17.64931645 17.68939137 -12.26328595 12.29109383 -6.87947083 6.89057922 C-4.58798773 4.59203944 -2.2953724 2.29465541 0 0 Z " fill="#9167EA" transform="translate(313,146)"/>
<path d="M0 0 C0.66 0 1.32 0 2 0 C1.9175 0.763125 1.835 1.52625 1.75 2.3125 C1.8325 3.199375 1.915 4.08625 2 5 C3.9600281 6.63676257 3.9600281 6.63676257 6 8 C6 8.99 6 9.98 6 11 C6.99 11 7.98 11 9 11 C11.75 13.8125 11.75 13.8125 14 17 C13.67 17.99 13.34 18.98 13 20 C7.39 14.39 1.78 8.78 -4 3 C-2.68 2.67 -1.36 2.34 0 2 C0 1.34 0 0.68 0 0 Z " fill="#8969D2" transform="translate(206,286)"/>
<path d="M0 0 C5.20054576 1.11440266 7.37163324 3.17995564 10.54296875 7.1796875 C12.52199225 9.65214045 14.72935121 11.796135 17 14 C16.34 14.66 15.68 15.32 15 16 C12.49599357 13.5248518 9.99748094 11.04423106 7.5 8.5625 C6.78457031 7.85544922 6.06914062 7.14839844 5.33203125 6.41992188 C4.65527344 5.74638672 3.97851562 5.07285156 3.28125 4.37890625 C2.65283203 3.7557251 2.02441406 3.13254395 1.37695312 2.49047852 C0 1 0 1 0 0 Z " fill="#8969D2" transform="translate(356,274)"/>
<path d="M0 0 C1.65 1.65 3.3 3.3 5 5 C3.68 5 2.36 5 1 5 C1 4.34 1 3.68 1 3 C0.34 3 -0.32 3 -1 3 C-1 3.99 -1 4.98 -1 6 C-0.34 6 0.32 6 1 6 C0.34 7.32 -0.32 8.64 -1 10 C-4 10 -4 10 -5.6875 8.5 C-6.120625 8.005 -6.55375 7.51 -7 7 C-2.25 1.125 -2.25 1.125 0 0 Z " fill="#9168E1" transform="translate(313,146)"/>
<path d="M0 0 C3.51752824 -0.3036715 5.40555414 -0.40215385 8.37890625 1.609375 C9.09949219 2.31578125 9.82007813 3.0221875 10.5625 3.75 C11.325625 4.47703125 12.08875 5.2040625 12.875 5.953125 C13.926875 6.96632813 13.926875 6.96632813 15 8 C16.6534173 9.34972841 18.31229929 10.693393 20 12 C19.67 12.99 19.34 13.98 19 15 C14.08064098 10.88380164 9.47352044 6.59589638 5 2 C4.01 2.33 3.02 2.66 2 3 C2 2.34 2 1.68 2 1 C1.34 0.67 0.68 0.34 0 0 Z " fill="#8469CF" transform="translate(183,273)"/>
<path d="M0 0 C3.14115279 0.73681362 6.10634638 1.55582792 9 3 C10.4375 6.125 10.4375 6.125 11 9 C11.66 9.33 12.32 9.66 13 10 C12.01 10.33 11.02 10.66 10 11 C8.33035479 9.35718838 6.6643536 7.71067239 5 6.0625 C4.071875 5.14597656 3.14375 4.22945313 2.1875 3.28515625 C0 1 0 1 0 0 Z " fill="#8B68D8" transform="translate(380,298)"/>
<path d="M0 0 C0 4.02627976 -1.73312762 5.73303687 -4 9 C-4.69429379 10.3191582 -5.37530495 11.64649406 -6 13 C-6 12.34 -6 11.68 -6 11 C-6.99 11 -7.98 11 -9 11 C-9.33 11.99 -9.66 12.98 -10 14 C-10.99 13.67 -11.98 13.34 -13 13 C-8.71 8.71 -4.42 4.42 0 0 Z " fill="#8B6CD7" transform="translate(265,194)"/>
<path d="M0 0 C0.33 0.66 0.66 1.32 1 2 C0.05988318 3.70116376 -0.94895617 5.36504293 -2 7 C-2.68096422 8.32608822 -3.35330586 9.65686601 -4 11 C-4 10.34 -4 9.68 -4 9 C-4.99 9 -5.98 9 -7 9 C-7.33 9.99 -7.66 10.98 -8 12 C-10.5625 13.1875 -10.5625 13.1875 -13 14 C-8.88380164 9.08064098 -4.59589638 4.47352044 0 0 Z " fill="#8B6CD7" transform="translate(279,180)"/>
<path d="M0 0 C0 3.53922552 -0.70481438 4.31891897 -2.8125 7.0625 C-3.33457031 7.75472656 -3.85664062 8.44695312 -4.39453125 9.16015625 C-6 11 -6 11 -9 13 C-9.72382467 15.05925139 -9.72382467 15.05925139 -10 17 C-10.99 16.34 -11.98 15.68 -13 15 C-13 12 -13 12 -11.42578125 10.3515625 C-10.72839844 9.78179687 -10.03101562 9.21203125 -9.3125 8.625 C-6.03135631 5.88002899 -2.97663714 3.06965705 0 0 Z " fill="#8C69D5" transform="translate(77,298)"/>
<path d="M0 0 C0.99 0.33 1.98 0.66 3 1 C1.27705085 2.77726278 -0.45287096 4.54669663 -2.1875 6.3125 C-2.67025391 6.81201172 -3.15300781 7.31152344 -3.65039062 7.82617188 C-6.54882553 10.76351194 -9.36101656 13.05078218 -13 15 C-12.67 13.68 -12.34 12.36 -12 11 C-11.071875 10.87625 -11.071875 10.87625 -10.125 10.75 C-7.82027141 10.20605562 -7.82027141 10.20605562 -6.9375 8 C-6.628125 7.34 -6.31875 6.68 -6 6 C-5.01 5.67 -4.02 5.34 -3 5 C-2.67 4.01 -2.34 3.02 -2 2 C-1.34 2 -0.68 2 0 2 C0 1.34 0 0.68 0 0 Z " fill="#8066D0" transform="translate(181,277)"/>
<path d="M0 0 C0.66 1.32 1.32 2.64 2 4 C2.99 4 3.98 4 5 4 C5 3.34 5 2.68 5 2 C6.32 1.67 7.64 1.34 9 1 C8.34 3.97 7.68 6.94 7 10 C0.25 4.375 0.25 4.375 -2 1 C-1.34 0.67 -0.68 0.34 0 0 Z " fill="#8C6ACE" transform="translate(222,305)"/>
<path d="M0 0 C0 3 0 3 -1 6 C-1.66 6 -2.32 6 -3 6 C-3.28875 6.598125 -3.5775 7.19625 -3.875 7.8125 C-5 10 -5 10 -7 13 C-7.99 12.01 -8.98 11.02 -10 10 C-6.7 6.7 -3.4 3.4 0 0 Z " fill="#8C6CDA" transform="translate(298,161)"/>
<path d="M0 0 C0.66 0.33 1.32 0.66 2 1 C-1.63 4.63 -5.26 8.26 -9 12 C-9.66 11.01 -10.32 10.02 -11 9 C-9.6875 7.5 -9.6875 7.5 -8 6 C-7.01 6 -6.02 6 -5 6 C-5 5.34 -5 4.68 -5 4 C-4.34 4 -3.68 4 -3 4 C-3 3.01 -3 2.02 -3 1 C-2.01 0.67 -1.02 0.34 0 0 Z " fill="#896BD5" transform="translate(166,292)"/>
<path d="M0 0 C1.32 0.66 2.64 1.32 4 2 C1.03 4.97 -1.94 7.94 -5 11 C-5.66 9.68 -6.32 8.36 -7 7 C-5.68 7 -4.36 7 -3 7 C-2.690625 6.030625 -2.38125 5.06125 -2.0625 4.0625 C-1 1 -1 1 0 0 Z " fill="#8A68D8" transform="translate(428,274)"/>
<path d="M0 0 C1.32 0.33 2.64 0.66 4 1 C4 1.66 4 2.32 4 3 C4.78375 3.268125 5.5675 3.53625 6.375 3.8125 C9 5 9 5 11 8 C10.67 8.99 10.34 9.98 10 11 C8.33035479 9.35718838 6.6643536 7.71067239 5 6.0625 C4.071875 5.14597656 3.14375 4.22945313 2.1875 3.28515625 C0 1 0 1 0 0 Z " fill="#896BC2" transform="translate(234,320)"/>
<path d="M0 0 C0.66 1.32 1.32 2.64 2 4 C1.34 4 0.68 4 0 4 C0 4.99 0 5.98 0 7 C-3.16115776 5.63016497 -3.9927092 5.0109362 -6 2 C-4.02 1.34 -2.04 0.68 0 0 Z " fill="#8C6CD1" transform="translate(251,329)"/>
<path d="M0 0 C0.66 1.32 1.32 2.64 2 4 C0.68 4.99 -0.64 5.98 -2 7 C-3.32 5.35 -4.64 3.7 -6 2 C-4.02 1.34 -2.04 0.68 0 0 Z " fill="#8C6CD0" transform="translate(235,313)"/>
<path d="M0 0 C1.32 0.66 2.64 1.32 4 2 C2.35 3.98 0.7 5.96 -1 8 C-1.99 6.68 -2.98 5.36 -4 4 C-2.68 2.68 -1.36 1.36 0 0 Z " fill="#8D69DD" transform="translate(405,296)"/>
<path d="M0 0 C3.23861303 1.44424635 5.61969163 3.25772247 8.25 5.625 C8.95640625 6.25664062 9.6628125 6.88828125 10.390625 7.5390625 C10.92171875 8.02117187 11.4528125 8.50328125 12 9 C11.67 9.99 11.34 10.98 11 12 C9.16364422 10.19047409 7.33083792 8.37759362 5.5 6.5625 C4.97535156 6.04623047 4.45070313 5.52996094 3.91015625 4.99804688 C2.58775448 3.68423213 1.29164432 2.34406495 0 1 C0 0.67 0 0.34 0 0 Z " fill="#8A6FCE" transform="translate(92,340)"/>
<path d="M0 0 C3.28247841 0.87532757 5.50854152 1.50854152 7.9375 3.9375 C8.288125 4.618125 8.63875 5.29875 9 6 C8.67 6.99 8.34 7.98 8 9 C6.66368764 7.6905332 5.33102075 6.37734515 4 5.0625 C3.2575 4.33160156 2.515 3.60070312 1.75 2.84765625 C0 1 0 1 0 0 Z " fill="#8B6AC9" transform="translate(332,250)"/>
<path d="M0 0 C1.65 0.33 3.3 0.66 5 1 C4.04578192 2.14926266 3.08647955 3.29430541 2.125 4.4375 C1.59132813 5.07558594 1.05765625 5.71367187 0.5078125 6.37109375 C-1 8 -1 8 -3 9 C-3.33 8.01 -3.66 7.02 -4 6 C-2.68 5.67 -1.36 5.34 0 5 C0 3.35 0 1.7 0 0 Z " fill="#8D6ED8" transform="translate(123,331)"/>
<path d="M0 0 C0.99 0.33 1.98 0.66 3 1 C0.69 3.31 -1.62 5.62 -4 8 C-4.66 7.67 -5.32 7.34 -6 7 C-5 4 -5 4 -4 2 C-2.68 2 -1.36 2 0 2 C0 1.34 0 0.68 0 0 Z " fill="#8C6CD8" transform="translate(416,288)"/>
<path d="M0 0 C2.31 1.98 4.62 3.96 7 6 C5 10 5 10 2 12 C2 11.01 2 10.02 2 9 C2.66 9 3.32 9 4 9 C2.79310745 5.89656201 1.49403054 2.98806107 0 0 Z " fill="#886DC7" transform="translate(430,263)"/>
<path d="M0 0 C0.33 0.99 0.66 1.98 1 3 C-0.65 4.65 -2.3 6.3 -4 8 C-4.99 7.67 -5.98 7.34 -7 7 C-4.69 4.69 -2.38 2.38 0 0 Z " fill="#8B6CD7" transform="translate(287,172)"/>
<path d="M0 0 C1.65 1.65 3.3 3.3 5 5 C3.68 5 2.36 5 1 5 C1 4.34 1 3.68 1 3 C0.34 3 -0.32 3 -1 3 C-1 3.66 -1 4.32 -1 5 C-1.99 4.67 -2.98 4.34 -4 4 C-2.68 2.68 -1.36 1.36 0 0 Z " fill="#896AD4" transform="translate(313,146)"/>
<path d="M0 0 C2.31 1.98 4.62 3.96 7 6 C6.34 7.32 5.68 8.64 5 10 C4.67 10 4.34 10 4 10 C3.566875 8.63875 3.566875 8.63875 3.125 7.25 C2.01252932 3.80833525 2.01252932 3.80833525 0 0 Z " fill="#896ECD" transform="translate(304,305)"/>
<path d="M0 0 C2.31 0.66 4.62 1.32 7 2 C6.67 3.65 6.34 5.3 6 7 C1.125 2.25 1.125 2.25 0 0 Z " fill="#8466DC" transform="translate(260,345)"/>
<path d="M0 0 C2.375 0.25 2.375 0.25 5 1 C6.3125 3.0625 6.3125 3.0625 7 5 C6.01 5 5.02 5 4 5 C1.8125 2.5 1.8125 2.5 0 0 Z " fill="#8869D0" transform="translate(374,292)"/>
<path d="M0 0 C2.375 0.3125 2.375 0.3125 5 1 C5.66 1.99 6.32 2.98 7 4 C6.67 4.99 6.34 5.98 6 7 C4.02 4.69 2.04 2.38 0 0 Z " fill="#896ACD" transform="translate(346,264)"/>
<path d="M0 0 C3.76488042 1.72154788 6.15063897 3.99234114 9 7 C6 7 6 7 4.39453125 5.46875 C3.87246094 4.8190625 3.35039063 4.169375 2.8125 3.5 C2.28269531 2.8503125 1.75289063 2.200625 1.20703125 1.53125 C0.80871094 1.0259375 0.41039063 0.520625 0 0 Z " fill="#8B6ED2" transform="translate(67,315)"/>
</svg>
